<svg width="140" height="39" viewBox="0 0 140 39" fill="none" xmlns="http://www.w3.org/2000/svg">
<g filter="url(#filter0_d)">
<path d="M28.9551 3.125C29.0137 3.11328 29.0664 3.10742 29.1133 3.10742C29.1719 3.0957 29.2246 3.08984 29.2715 3.08984C29.4824 3.08984 29.6523 3.16016 29.7812 3.30078C29.9102 3.42969 29.998 3.66406 30.0449 4.00391C30.0684 4.21484 30.1035 4.51367 30.1504 4.90039C30.209 5.27539 30.2676 5.69727 30.3262 6.16602C30.3965 6.62305 30.4668 7.09766 30.5371 7.58984C30.6191 8.08203 30.6895 8.53906 30.748 8.96094C30.8066 9.37109 30.8594 9.72852 30.9062 10.0332C30.9531 10.3262 30.9824 10.5137 30.9941 10.5957C31.252 12.6699 31.4805 14.334 31.6797 15.5879C31.8789 16.8418 32.0195 17.7676 32.1016 18.3652L33.2793 27.875L33.1035 28.4199C33.0801 28.502 32.9277 28.6016 32.6465 28.7188C32.3652 28.8359 32.0254 28.959 31.627 29.0879C31.2285 29.2285 30.7949 29.3633 30.3262 29.4922C29.8574 29.6211 29.4238 29.7383 29.0254 29.8438C28.627 29.9492 28.2871 30.0312 28.0059 30.0898C27.7363 30.1602 27.5957 30.1953 27.584 30.1953C27.3027 30.1953 27.0801 29.9902 26.916 29.5801C26.752 29.1699 26.6172 28.6484 26.5117 28.0156C26.4062 27.3828 26.3184 26.6914 26.248 25.9414C26.1895 25.1914 26.1191 24.4707 26.0371 23.7793C25.9668 23.2051 25.9023 22.625 25.8438 22.0391C25.7852 21.4531 25.7207 20.8555 25.6504 20.2461L24.9648 15.1133L18.4434 27.0488C18.2441 27.3301 18.0449 27.5352 17.8457 27.6641C17.6465 27.7812 17.459 27.8398 17.2832 27.8398C17.0254 27.8398 16.8203 27.7637 16.668 27.6113C16.5273 27.459 16.4277 27.2715 16.3691 27.0488C16.1465 26.3105 15.9531 25.6895 15.7891 25.1855C15.6367 24.6699 15.4902 24.2012 15.3496 23.7793C15.2207 23.3574 15.0977 22.9473 14.9805 22.5488C14.8633 22.1504 14.7285 21.6934 14.5762 21.1777C14.4355 20.6504 14.2715 20.0352 14.084 19.332C13.9082 18.6172 13.6914 17.7441 13.4336 16.7129L12.8887 19.2441L10.3574 29.9844C10.3223 30.125 10.1758 30.1953 9.91797 30.1953C9.67188 30.1953 9.33203 30.1484 8.89844 30.0547C8.47656 29.9609 8.03125 29.8438 7.5625 29.7031C7.10547 29.5742 6.6543 29.4336 6.20898 29.2812C5.77539 29.1406 5.42969 29.0117 5.17188 28.8945C5.11328 28.8711 5.03711 28.8184 4.94336 28.7363C4.86133 28.6426 4.82031 28.502 4.82031 28.3145C4.82031 28.2676 4.83789 28.168 4.87305 28.0156C4.9082 27.8633 4.94922 27.6875 4.99609 27.4883C5.05469 27.2773 5.11328 27.0664 5.17188 26.8555C5.24219 26.6445 5.30664 26.457 5.36523 26.293C5.51758 25.8945 5.65234 25.4258 5.76953 24.8867C5.89844 24.3477 6.01562 23.8027 6.12109 23.252C6.22656 22.7012 6.32031 22.1738 6.40234 21.6699C6.49609 21.166 6.58398 20.7441 6.66602 20.4043L8.82812 10.3145L9.47852 7.4668C9.56055 7.10352 9.63672 6.75195 9.70703 6.41211C9.78906 6.06055 9.85938 5.74414 9.91797 5.46289C9.97656 5.18164 10.0234 4.95312 10.0586 4.77734C10.0938 4.60156 10.1113 4.50195 10.1113 4.47852L14.5059 3.125C14.6699 3.125 14.8105 3.14258 14.9277 3.17773C15.0566 3.20117 15.1387 3.29492 15.1738 3.45898L18.6719 14.709L23.4707 4.60156L28.9551 3.125ZM48.9203 29.9141C47.268 29.9141 45.8148 29.6445 44.5609 29.1055C43.3187 28.5664 42.2758 27.8516 41.432 26.9609C40.5883 26.0586 39.9555 25.0273 39.5336 23.8672C39.1117 22.6953 38.9008 21.4824 38.9008 20.2285C38.9008 18.9746 39.1059 17.7852 39.516 16.6602C39.9262 15.5234 40.5004 14.5098 41.2387 13.6191C41.977 12.7168 42.8617 11.9668 43.893 11.3691C44.9242 10.7598 46.0609 10.3496 47.3031 10.1387C47.4906 10.127 47.5844 10.0859 47.5844 10.0156C47.5844 9.88672 47.5668 9.76953 47.5316 9.66406C47.5082 9.54688 47.4965 9.44727 47.4965 9.36523C47.4965 9.23633 47.5199 9.14844 47.5668 9.10156C47.6137 9.05469 47.6664 9.03125 47.725 9.03125C49.9633 9.03125 51.8676 9.28906 53.4379 9.80469C55.0082 10.3086 56.2855 11 57.2699 11.8789C58.2543 12.7578 58.9691 13.7949 59.4145 14.9902C59.8598 16.1855 60.0824 17.4688 60.0824 18.8398C60.0824 20.5859 59.7895 22.1445 59.2035 23.5156C58.6176 24.8867 57.8148 26.0469 56.7953 26.9961C55.7875 27.9453 54.6039 28.666 53.2445 29.1582C51.8969 29.6621 50.4555 29.9141 48.9203 29.9141ZM45.6684 20.0352C45.6684 20.668 45.7328 21.2949 45.8617 21.916C46.0023 22.5371 46.225 23.0996 46.5297 23.6035C46.8461 24.1074 47.2562 24.5176 47.7602 24.834C48.2641 25.1387 48.891 25.291 49.641 25.291C50.1801 25.2676 50.6488 25.1504 51.0473 24.9395C51.4574 24.7168 51.809 24.4355 52.102 24.0957C52.3949 23.7441 52.6352 23.3516 52.8227 22.918C53.0219 22.4844 53.1742 22.0391 53.2797 21.582C53.3969 21.1133 53.4789 20.6562 53.5258 20.2109C53.5727 19.7656 53.5961 19.3613 53.5961 18.998C53.5961 18.3887 53.5023 17.791 53.3148 17.2051C53.1391 16.6191 52.8754 16.1035 52.5238 15.6582C52.1723 15.2129 51.7328 14.8555 51.2055 14.5859C50.6898 14.3047 50.0922 14.1641 49.4125 14.1641C48.7094 14.1641 48.1176 14.375 47.6371 14.7969C47.1566 15.207 46.7699 15.7168 46.477 16.3262C46.1957 16.9355 45.9906 17.5801 45.8617 18.2598C45.7328 18.9277 45.6684 19.5195 45.6684 20.0352ZM78.3777 9.55859C78.4246 9.44141 78.5125 9.38281 78.6414 9.38281C78.6648 9.38281 78.6883 9.38867 78.7117 9.40039C78.7352 9.40039 78.7586 9.40039 78.782 9.40039C79.6609 9.74023 80.5633 10.0215 81.4891 10.2441C82.4148 10.4551 83.3348 10.6602 84.2488 10.8594C84.4715 10.9062 84.5828 11.0352 84.5828 11.2461C84.5828 11.3984 84.5125 11.6328 84.3719 11.9492L77.1297 27.3477C77.0359 27.5586 76.9539 27.7285 76.8836 27.8574C76.8133 27.9863 76.743 28.0918 76.6727 28.1738C76.6023 28.2559 76.5262 28.3145 76.4441 28.3496C76.3621 28.3848 76.2625 28.4141 76.1453 28.4375C75.2547 28.6133 74.3523 28.8125 73.4383 29.0352C72.5242 29.2695 71.575 29.5566 70.5906 29.8965C70.5672 29.8965 70.5496 29.8965 70.5379 29.8965C70.5262 29.9082 70.5145 29.9141 70.5027 29.9141H70.3797C70.3211 29.9141 70.2742 29.8906 70.2391 29.8438C70.2039 29.8086 70.1805 29.7734 70.1687 29.7383C69.993 29.2344 69.7879 28.584 69.5535 27.7871C69.3309 26.9902 69.0848 26.0996 68.8152 25.1152C68.5457 24.1309 68.2645 23.082 67.9715 21.9688C67.6785 20.8555 67.3797 19.7246 67.075 18.5762C66.7703 17.4277 66.4656 16.291 66.1609 15.166C65.868 14.0293 65.5809 12.957 65.2996 11.9492C65.1941 11.5859 65.1414 11.3281 65.1414 11.1758C65.1414 11.0117 65.2352 10.9062 65.4227 10.8594C66.3367 10.6602 67.2859 10.4551 68.2703 10.2441C69.2547 10.0215 70.1863 9.74023 71.0652 9.40039C71.1004 9.38867 71.1531 9.38281 71.2234 9.38281C71.3758 9.38281 71.4578 9.44141 71.4695 9.55859L73.7898 21.3711C73.8484 21.2305 73.948 20.9785 74.0887 20.6152C74.2293 20.2402 74.3992 19.7949 74.5984 19.2793C74.7977 18.7637 75.0145 18.1953 75.2488 17.5742C75.4949 16.9531 75.741 16.3203 75.9871 15.6758C76.2449 15.0312 76.4969 14.3926 76.743 13.7598C76.9891 13.1152 77.2176 12.5176 77.4285 11.9668C77.6512 11.416 77.8445 10.9297 78.0086 10.5078C78.1727 10.0859 78.2957 9.76953 78.3777 9.55859ZM89.2023 21.5469C89.3547 19.9414 89.507 18.3535 89.6594 16.7832C89.8117 15.2129 89.9465 13.6016 90.0637 11.9492C90.0871 11.5625 90.1223 11.2988 90.1691 11.1582C90.2277 11.0059 90.3625 10.9062 90.5734 10.8594C91.5695 10.6602 92.6125 10.4551 93.7023 10.2441C94.7922 10.0215 95.8469 9.74023 96.8664 9.40039C96.9016 9.38867 96.9543 9.38281 97.0246 9.38281C97.1535 9.38281 97.218 9.42969 97.218 9.52344L95.6359 26.6445C95.6008 27.0312 95.5598 27.3008 95.5129 27.4531C95.466 27.5938 95.3371 27.6875 95.1262 27.7344C94.1301 28.0391 93.1223 28.3789 92.1027 28.7539C91.0832 29.1289 90.0051 29.5098 88.8684 29.8965C88.8332 29.9082 88.7805 29.9141 88.7102 29.9141C88.5813 29.9141 88.5168 29.8555 88.5168 29.7383C88.5168 29.7266 88.5285 29.5684 88.552 29.2637C88.5754 28.959 88.6047 28.5664 88.6398 28.0859C88.6867 27.6055 88.7336 27.0664 88.7805 26.4688C88.8273 25.8711 88.8742 25.2734 88.9211 24.6758C88.9797 24.0781 89.0324 23.5039 89.0793 22.9531C89.1262 22.4023 89.1672 21.9336 89.2023 21.5469ZM90.5207 7.51953C90.5559 7.01562 90.5793 6.62891 90.591 6.35938C90.6145 6.08984 90.632 5.89062 90.6438 5.76172C90.6555 5.62109 90.6613 5.5332 90.6613 5.49805C90.6613 5.46289 90.6613 5.43945 90.6613 5.42773C90.673 5.4043 90.6789 5.36914 90.6789 5.32227C90.6906 5.26367 90.7023 5.15234 90.7141 4.98828C90.7258 4.8125 90.7434 4.56055 90.7668 4.23242C90.7902 3.9043 90.8254 3.45312 90.8723 2.87891C90.8957 2.49219 90.9309 2.22852 90.9777 2.08789C91.0363 1.93555 91.1711 1.83594 91.382 1.78906C92.3781 1.58984 93.4211 1.38477 94.5109 1.17383C95.6008 0.951172 96.6555 0.669922 97.675 0.330078C97.7102 0.318359 97.7629 0.3125 97.8332 0.3125C97.8684 0.382812 97.9152 0.429688 97.9738 0.453125L98.0266 0.488281L97.6398 5.30469C97.6047 5.69141 97.5578 5.96094 97.4992 6.11328C97.4523 6.26562 97.3293 6.35938 97.1301 6.39453C96.134 6.58203 95.1262 6.78711 94.1066 7.00977C93.0871 7.23242 92.009 7.45508 90.8723 7.67773C90.8371 7.68945 90.7844 7.69531 90.7141 7.69531C90.5852 7.69531 90.5207 7.63672 90.5207 7.51953ZM104.246 29C104.105 29 103.964 28.9883 103.824 28.9648C103.683 28.9297 103.554 28.877 103.437 28.8066C103.32 28.7246 103.22 28.6191 103.138 28.4902C103.068 28.3496 103.033 28.168 103.033 27.9453C103.033 27.9219 103.039 27.8984 103.05 27.875C103.062 27.8516 103.068 27.8281 103.068 27.8047L112.226 11.7383C112.226 11.7031 112.097 11.6738 111.839 11.6504C111.593 11.6152 111.271 11.5918 110.873 11.5801C110.486 11.5566 110.058 11.5391 109.589 11.5273C109.121 11.5039 108.67 11.4922 108.236 11.4922C107.814 11.4805 107.433 11.4746 107.093 11.4746C106.765 11.4629 106.543 11.457 106.425 11.457C105.793 11.457 105.201 11.4688 104.65 11.4922C104.099 11.5039 103.525 11.5098 102.927 11.5098C102.798 11.5098 102.687 11.4688 102.593 11.3867C102.5 11.293 102.453 11.1875 102.453 11.0703C102.464 11.0586 102.47 11.0469 102.47 11.0352C102.47 11 102.476 10.9648 102.488 10.9297L104.755 5.49805C104.861 5.24023 105.019 5.03516 105.23 4.88281C105.453 4.71875 105.699 4.5957 105.968 4.51367C106.25 4.41992 106.548 4.36133 106.865 4.33789C107.181 4.30273 107.492 4.28516 107.796 4.28516C109.074 4.28516 110.334 4.31445 111.576 4.37305C112.818 4.41992 114.054 4.47266 115.285 4.53125C116.527 4.58984 117.763 4.64844 118.994 4.70703C120.236 4.75391 121.49 4.77734 122.755 4.77734V5.49805L114.195 21.4941C114.195 21.5176 114.189 21.5352 114.177 21.5469C114.177 21.5469 114.177 21.5586 114.177 21.582C114.177 21.7109 114.236 21.7871 114.353 21.8105C114.47 21.8223 114.576 21.8281 114.67 21.8281H118.15C118.853 21.8281 119.533 21.7871 120.189 21.7051C120.845 21.6113 121.525 21.5645 122.228 21.5645C122.369 21.5645 122.498 21.6113 122.615 21.7051C122.732 21.7871 122.791 21.8926 122.791 22.0215C122.791 22.0098 122.779 22.0625 122.755 22.1797L119.925 27.8047C119.832 28.0859 119.656 28.3086 119.398 28.4727C119.152 28.6367 118.847 28.7598 118.484 28.8418C118.132 28.9238 117.74 28.9766 117.306 29C116.873 29.0234 116.427 29.0352 115.97 29.0352C114.13 29.0352 112.261 29.0293 110.363 29.0176C108.476 29.0059 106.437 29 104.246 29ZM127.797 29.668C127.82 29.1172 127.838 28.6836 127.85 28.3672C127.861 28.0391 127.867 27.7871 127.867 27.6113C127.879 27.4355 127.885 27.3125 127.885 27.2422C127.885 27.1719 127.885 27.1074 127.885 27.0488C127.885 26.9785 127.885 26.8965 127.885 26.8027C127.896 26.709 127.908 26.5566 127.92 26.3457C127.932 26.123 127.949 25.8242 127.973 25.4492C127.996 25.0625 128.025 24.5527 128.061 23.9199C128.084 23.5332 128.119 23.2695 128.166 23.1289C128.225 22.9766 128.359 22.8828 128.57 22.8477C129.602 22.8477 130.68 22.8477 131.805 22.8477C132.93 22.8359 133.99 22.8242 134.986 22.8125C135.092 22.8125 135.18 22.8418 135.25 22.9004C135.32 22.959 135.355 23.0703 135.355 23.2344L134.863 28.7539C134.816 29.1406 134.77 29.4043 134.723 29.5449C134.688 29.6973 134.559 29.7852 134.336 29.8086C133.34 29.8203 132.314 29.832 131.26 29.8438C130.217 29.8555 129.127 29.8613 127.99 29.8613C127.92 29.8613 127.867 29.8555 127.832 29.8438C127.809 29.832 127.797 29.7969 127.797 29.7383V29.668Z" fill="white"/>
</g>
<defs>
<filter id="filter0_d" x="0.820312" y="0.3125" width="138.535" height="37.8828" filterUnits="userSpaceOnUse" color-interpolation-filters="sRGB">
<feFlood flood-opacity="0" result="BackgroundImageFix"/>
<feColorMatrix in="SourceAlpha" type="matrix" values="0 0 0 0 0 0 0 0 0 0 0 0 0 0 0 0 0 0 127 0"/>
<feOffset dy="4"/>
<feGaussianBlur stdDeviation="2"/>
<feColorMatrix type="matrix" values="0 0 0 0 1 0 0 0 0 1 0 0 0 0 1 0 0 0 0.3 0"/>
<feBlend mode="normal" in2="BackgroundImageFix" result="effect1_dropShadow"/>
<feBlend mode="normal" in="SourceGraphic" in2="effect1_dropShadow" result="shape"/>
</filter>
</defs>
</svg>
